<svg width="389" height="316" viewBox="0 0 389 316" fill="none" xmlns="http://www.w3.org/2000/svg">
<path d="M113.392 231.917C105.42 231.917 98.5949 229.079 92.9178 223.402C87.2407 217.725 84.4021 210.9 84.4021 202.928V159.443H127.887V126.83C119.431 126.347 111.399 124.474 103.789 121.213C96.1791 117.952 89.2337 113.06 82.9526 106.537V90.5928H66.2835L19.1753 43.4845C27.8722 32.3718 38.6225 24.5204 51.4263 19.9304C64.2301 15.3404 77.1547 13.0454 90.2 13.0454C96.7227 13.0454 103.064 13.5285 109.224 14.4948C115.385 15.4612 121.606 17.273 127.887 19.9304V0H301.825V188.433C301.825 200.512 297.597 210.779 289.142 219.234C280.686 227.69 270.419 231.917 258.34 231.917H113.392ZM156.876 159.443H243.845V188.433C243.845 192.54 245.234 195.982 248.013 198.761C250.791 201.539 254.233 202.928 258.34 202.928C262.447 202.928 265.89 201.539 268.668 198.761C271.446 195.982 272.835 192.54 272.835 188.433V28.9897H156.876V37.6866L243.845 124.656V144.948H223.553L182.242 103.638L179.343 106.537C175.961 109.919 172.398 112.939 168.653 115.596C164.909 118.254 160.983 120.307 156.876 121.757V159.443ZM78.6041 61.6031H111.942V92.767C114.841 94.6996 117.861 96.0283 121.002 96.7531C124.142 97.4778 127.403 97.8402 130.786 97.8402C136.342 97.8402 141.355 96.9947 145.824 95.3036C150.293 93.6125 154.702 90.5928 159.051 86.2443L161.949 83.3453L141.657 63.0526C134.651 56.0467 126.799 50.7923 118.103 47.2894C109.406 43.7865 100.105 42.035 90.2 42.035C85.3684 42.035 80.7784 42.3974 76.4299 43.1222C72.0815 43.8469 67.733 44.934 63.3846 46.3835L78.6041 61.6031ZM214.856 188.433H113.392V202.928H217.03C216.305 200.754 215.762 198.459 215.399 196.043C215.037 193.627 214.856 191.09 214.856 188.433ZM113.392 202.928C113.392 200.754 113.392 198.459 113.392 196.043C113.392 193.627 113.392 191.09 113.392 188.433C113.392 190.849 113.392 193.265 113.392 195.68C113.392 198.096 113.392 200.512 113.392 202.928Z" fill="#D6B474"/>
<path d="M10.9471 301.329V295.017H19.3793C20.8915 295.017 22.0257 294.623 22.7818 293.834C23.5379 293.045 23.9159 291.927 23.9159 290.481C23.9159 289.034 23.5379 287.933 22.7818 287.177C22.0257 286.388 20.8915 285.993 19.3793 285.993H10.9471V281.111H18.9848C21.4833 281.111 23.7023 281.424 25.6418 282.048C27.5814 282.64 29.1101 283.61 30.2278 284.958C31.3455 286.306 31.9044 288.13 31.9044 290.431V291.122C31.9044 293.258 31.4112 295.099 30.425 296.645C29.4388 298.157 27.9923 299.324 26.0856 300.146C24.1789 300.935 21.812 301.329 18.9848 301.329H10.9471ZM4.04352 301.329V264.789H11.9333V301.329H4.04352ZM10.9471 284.711V279.879H18.0479C19.593 279.879 20.7107 279.484 21.4011 278.695C22.0914 277.906 22.4366 276.854 22.4366 275.539C22.4366 274.159 22.0914 273.074 21.4011 272.285C20.7107 271.496 19.593 271.101 18.0479 271.101H10.9471V264.789H17.5548C21.6969 264.789 24.8693 265.661 27.0719 267.403C29.3073 269.145 30.425 271.627 30.425 274.849V275.589C30.425 277.824 29.8497 279.616 28.6991 280.964C27.5814 282.311 26.0528 283.281 24.1132 283.873C22.2065 284.432 20.0204 284.711 17.5548 284.711H10.9471ZM54.064 301.083V293.094H52.7326V284.415C52.7326 283.035 52.4038 281.999 51.7463 281.309C51.0889 280.618 50.0369 280.273 48.5904 280.273C47.8672 280.273 46.9138 280.29 45.7304 280.322C44.5469 280.355 43.3306 280.405 42.0813 280.47C40.8321 280.536 39.698 280.602 38.6789 280.668V274.011C39.435 273.945 40.3226 273.879 41.3417 273.813C42.3608 273.748 43.4127 273.698 44.4976 273.665C45.5824 273.633 46.6015 273.616 47.5549 273.616C50.3163 273.616 52.6339 274.011 54.5078 274.8C56.4145 275.589 57.8609 276.789 58.8472 278.399C59.8334 279.977 60.3265 282.016 60.3265 284.514V301.083H54.064ZM45.4345 301.773C43.4949 301.773 41.7855 301.428 40.3061 300.737C38.8597 300.047 37.7255 299.061 36.9037 297.779C36.0818 296.464 35.6709 294.902 35.6709 293.094C35.6709 291.122 36.1804 289.511 37.1995 288.262C38.2186 286.98 39.6487 286.043 41.4896 285.451C43.3306 284.826 45.4509 284.514 47.8508 284.514H53.6202V288.903H47.8014C46.4207 288.903 45.3523 289.248 44.5962 289.938C43.873 290.596 43.5114 291.5 43.5114 292.65C43.5114 293.735 43.873 294.623 44.5962 295.313C45.3523 295.971 46.4207 296.299 47.8014 296.299C48.689 296.299 49.478 296.151 50.1684 295.856C50.8916 295.527 51.4833 294.984 51.9436 294.228C52.4038 293.472 52.6668 292.42 52.7326 291.072L54.6064 293.045C54.442 294.919 53.9818 296.497 53.2257 297.779C52.5024 299.061 51.4833 300.047 50.1684 300.737C48.8863 301.428 47.3083 301.773 45.4345 301.773ZM66.2431 311.783V305.077H71.8645C72.7193 305.077 73.4425 304.962 74.0342 304.732C74.626 304.534 75.1027 304.189 75.4643 303.696C75.8259 303.203 76.1217 302.529 76.3519 301.674L83.0089 274.06H90.5042L82.9596 303.252C82.4336 305.356 81.6939 307.033 80.7406 308.282C79.8201 309.531 78.5709 310.419 76.9929 310.945C75.4478 311.504 73.4754 311.783 71.0756 311.783H66.2431ZM74.7246 300.491V294.327H80.4447V300.491H74.7246ZM71.4701 300.491L63.1858 274.06H71.1249L78.9654 300.491H71.4701ZM107.422 301.428C104.693 301.428 102.491 301.099 100.814 300.441C99.1375 299.751 97.9047 298.617 97.1157 297.039C96.3596 295.428 95.9816 293.258 95.9816 290.53V266.762H103.329V290.826C103.329 292.108 103.658 293.094 104.315 293.784C105.006 294.442 105.975 294.771 107.225 294.771H111.219V301.428H107.422ZM91.8887 279.829V274.06H111.219V279.829H91.8887ZM125.647 301.921C122.524 301.921 120.124 300.918 118.447 298.913C116.771 296.875 115.933 293.817 115.933 289.741V274.06H123.822V290.135C123.822 291.582 124.233 292.732 125.055 293.587C125.877 294.442 126.978 294.869 128.359 294.869C129.773 294.869 130.923 294.426 131.811 293.538C132.698 292.65 133.142 291.45 133.142 289.938V274.06H141.032V301.083H134.769V289.692H135.312C135.312 292.42 134.95 294.705 134.227 296.546C133.537 298.354 132.501 299.702 131.12 300.589C129.74 301.477 128.03 301.921 125.992 301.921H125.647ZM148.652 301.083V265.085H156.591V301.083H148.652ZM145.447 270.904V265.085H156.591V270.904H145.447ZM171.256 301.083L183.14 265.085H196.207L208.535 301.083H200.152L190.191 270.657L192.756 271.693H186.394L189.057 270.657L179.343 301.083H171.256ZM180.28 292.157L182.745 285.451H196.848L199.363 292.157H180.28ZM222.948 301.921C219.101 301.921 216.093 301.132 213.924 299.554C211.754 297.976 210.603 295.757 210.472 292.897H217.474C217.606 293.752 218.115 294.524 219.003 295.214C219.923 295.872 221.287 296.201 223.095 296.201C224.476 296.201 225.61 295.971 226.498 295.51C227.418 295.017 227.879 294.327 227.879 293.439C227.879 292.65 227.534 292.026 226.843 291.565C226.153 291.072 224.92 290.727 223.145 290.53L221.024 290.333C217.77 290.004 215.321 289.1 213.677 287.621C212.066 286.141 211.261 284.251 211.261 281.95C211.261 280.043 211.737 278.449 212.691 277.167C213.644 275.884 214.959 274.915 216.636 274.257C218.345 273.6 220.285 273.271 222.454 273.271C225.939 273.271 228.75 274.044 230.887 275.589C233.023 277.101 234.141 279.303 234.24 282.196H227.238C227.106 281.309 226.646 280.569 225.857 279.977C225.068 279.353 223.901 279.04 222.356 279.04C221.139 279.04 220.17 279.271 219.446 279.731C218.723 280.191 218.362 280.816 218.362 281.605C218.362 282.361 218.674 282.936 219.299 283.33C219.923 283.725 220.942 284.004 222.356 284.169L224.476 284.366C227.796 284.728 230.377 285.648 232.218 287.127C234.059 288.607 234.979 290.596 234.979 293.094C234.979 294.902 234.486 296.48 233.5 297.828C232.514 299.143 231.117 300.162 229.309 300.885C227.501 301.576 225.38 301.921 222.948 301.921ZM240.091 301.083V274.06H246.354V285.697H245.91C245.91 282.936 246.255 280.635 246.946 278.794C247.636 276.953 248.671 275.572 250.052 274.652C251.433 273.698 253.126 273.222 255.131 273.222H255.476C257.515 273.222 259.208 273.698 260.555 274.652C261.936 275.572 262.972 276.953 263.662 278.794C264.385 280.635 264.747 282.936 264.747 285.697H262.824C262.824 282.936 263.169 280.635 263.859 278.794C264.583 276.953 265.635 275.572 267.015 274.652C268.396 273.698 270.089 273.222 272.094 273.222H272.439C274.478 273.222 276.187 273.698 277.568 274.652C278.981 275.572 280.05 276.953 280.773 278.794C281.496 280.635 281.858 282.936 281.858 285.697V301.083H273.968V285.254C273.968 283.774 273.574 282.574 272.785 281.654C272.029 280.733 270.944 280.273 269.53 280.273C268.117 280.273 266.999 280.75 266.177 281.703C265.355 282.624 264.944 283.856 264.944 285.402V301.083H257.005V285.254C257.005 283.774 256.611 282.574 255.822 281.654C255.065 280.733 253.997 280.273 252.616 280.273C251.17 280.273 250.036 280.75 249.214 281.703C248.392 282.624 247.981 283.856 247.981 285.402V301.083H240.091ZM304.906 301.083V293.094H303.574V284.415C303.574 283.035 303.246 281.999 302.588 281.309C301.931 280.618 300.879 280.273 299.432 280.273C298.709 280.273 297.756 280.29 296.572 280.322C295.389 280.355 294.172 280.405 292.923 280.47C291.674 280.536 290.54 280.602 289.521 280.668V274.011C290.277 273.945 291.165 273.879 292.184 273.813C293.203 273.748 294.255 273.698 295.34 273.665C296.424 273.633 297.443 273.616 298.397 273.616C301.158 273.616 303.476 274.011 305.35 274.8C307.256 275.589 308.703 276.789 309.689 278.399C310.675 279.977 311.168 282.016 311.168 284.514V301.083H304.906ZM296.276 301.773C294.337 301.773 292.627 301.428 291.148 300.737C289.702 300.047 288.567 299.061 287.746 297.779C286.924 296.464 286.513 294.902 286.513 293.094C286.513 291.122 287.022 289.511 288.041 288.262C289.061 286.98 290.491 286.043 292.332 285.451C294.172 284.826 296.293 284.514 298.693 284.514H304.462V288.903H298.643C297.263 288.903 296.194 289.248 295.438 289.938C294.715 290.596 294.353 291.5 294.353 292.65C294.353 293.735 294.715 294.623 295.438 295.313C296.194 295.971 297.263 296.299 298.643 296.299C299.531 296.299 300.32 296.151 301.01 295.856C301.734 295.527 302.325 294.984 302.786 294.228C303.246 293.472 303.509 292.42 303.574 291.072L305.448 293.045C305.284 294.919 304.824 296.497 304.068 297.779C303.344 299.061 302.325 300.047 301.01 300.737C299.728 301.428 298.15 301.773 296.276 301.773ZM334.184 301.083V293.094H332.853V284.415C332.853 283.035 332.524 281.999 331.867 281.309C331.209 280.618 330.157 280.273 328.711 280.273C327.988 280.273 327.034 280.29 325.851 280.322C324.667 280.355 323.451 280.405 322.202 280.47C320.953 280.536 319.818 280.602 318.799 280.668V274.011C319.555 273.945 320.443 273.879 321.462 273.813C322.481 273.748 323.533 273.698 324.618 273.665C325.703 273.633 326.722 273.616 327.675 273.616C330.437 273.616 332.754 274.011 334.628 274.8C336.535 275.589 337.981 276.789 338.968 278.399C339.954 279.977 340.447 282.016 340.447 284.514V301.083H334.184ZM325.555 301.773C323.615 301.773 321.906 301.428 320.427 300.737C318.98 300.047 317.846 299.061 317.024 297.779C316.202 296.464 315.791 294.902 315.791 293.094C315.791 291.122 316.301 289.511 317.32 288.262C318.339 286.98 319.769 286.043 321.61 285.451C323.451 284.826 325.571 284.514 327.971 284.514H333.741V288.903H327.922C326.541 288.903 325.473 289.248 324.717 289.938C323.993 290.596 323.632 291.5 323.632 292.65C323.632 293.735 323.993 294.623 324.717 295.313C325.473 295.971 326.541 296.299 327.922 296.299C328.81 296.299 329.598 296.151 330.289 295.856C331.012 295.527 331.604 294.984 332.064 294.228C332.524 293.472 332.787 292.42 332.853 291.072L334.727 293.045C334.562 294.919 334.102 296.497 333.346 297.779C332.623 299.061 331.604 300.047 330.289 300.737C329.007 301.428 327.429 301.773 325.555 301.773ZM362.97 284.859V265.085H369.725L374.361 277.265H374.607L379.243 265.085H385.998V284.859H381.018V267.847L382.251 267.896L377.024 281.605H371.797L366.52 267.896L367.704 267.847V284.859H362.97ZM349.754 284.859V269.03H354.981V284.859H349.754ZM344.232 269.523V265.085H360.554V269.523H344.232Z" fill="#D6B474"/>
</svg>
